<svg xmlns="http://www.w3.org/2000/svg" viewBox="0 0 100 520">
  <!-- Ten Block (Rod) - Red - Solid exterior only -->

  <!-- Top face (top cube only) -->
  <polygon points="50,10 90,30 50,50 10,30" fill="#E74C3C" stroke="#333" stroke-width="1.5"/>

  <!-- Left face (full height) -->
  <polygon points="10,30 50,50 50,500 10,480" fill="#C0392B" stroke="#333" stroke-width="1.5"/>

  <!-- Right face (full height) -->
  <polygon points="50,50 90,30 90,480 50,500" fill="#A93226" stroke="#333" stroke-width="1.5"/>

  <!-- Horizontal lines on left face to show cube divisions -->
  <line x1="10" y1="75" x2="50" y2="95" stroke="#333" stroke-width="0.8"/>
  <line x1="10" y1="120" x2="50" y2="140" stroke="#333" stroke-width="0.8"/>
  <line x1="10" y1="165" x2="50" y2="185" stroke="#333" stroke-width="0.8"/>
  <line x1="10" y1="210" x2="50" y2="230" stroke="#333" stroke-width="0.8"/>
  <line x1="10" y1="255" x2="50" y2="275" stroke="#333" stroke-width="0.8"/>
  <line x1="10" y1="300" x2="50" y2="320" stroke="#333" stroke-width="0.8"/>
  <line x1="10" y1="345" x2="50" y2="365" stroke="#333" stroke-width="0.8"/>
  <line x1="10" y1="390" x2="50" y2="410" stroke="#333" stroke-width="0.8"/>
  <line x1="10" y1="435" x2="50" y2="455" stroke="#333" stroke-width="0.8"/>

  <!-- Horizontal lines on right face to show cube divisions -->
  <line x1="50" y1="95" x2="90" y2="75" stroke="#333" stroke-width="0.8"/>
  <line x1="50" y1="140" x2="90" y2="120" stroke="#333" stroke-width="0.8"/>
  <line x1="50" y1="185" x2="90" y2="165" stroke="#333" stroke-width="0.8"/>
  <line x1="50" y1="230" x2="90" y2="210" stroke="#333" stroke-width="0.8"/>
  <line x1="50" y1="275" x2="90" y2="255" stroke="#333" stroke-width="0.8"/>
  <line x1="50" y1="320" x2="90" y2="300" stroke="#333" stroke-width="0.8"/>
  <line x1="50" y1="365" x2="90" y2="345" stroke="#333" stroke-width="0.8"/>
  <line x1="50" y1="410" x2="90" y2="390" stroke="#333" stroke-width="0.8"/>
  <line x1="50" y1="455" x2="90" y2="435" stroke="#333" stroke-width="0.8"/>
</svg>
